<mxfile host="app.diagrams.net" modified="2024-04-23T02:47:03.092Z" agent="Mozilla/5.0 (Windows NT 10.0; Win64; x64) AppleWebKit/537.36 (KHTML, like Gecko) Chrome/123.0.0.0 Safari/537.36" etag="pbbRoZnzWpRwqlndthcq" version="24.2.7" type="device">
  <diagram id="C5RBs43oDa-KdzZeNtuy" name="Page-1">
    <mxGraphModel dx="1050" dy="607" grid="1" gridSize="10" guides="1" tooltips="1" connect="1" arrows="1" fold="1" page="1" pageScale="1" pageWidth="1169" pageHeight="827" math="0" shadow="0">
      <root>
        <mxCell id="WIyWlLk6GJQsqaUBKTNV-0" />
        <mxCell id="WIyWlLk6GJQsqaUBKTNV-1" parent="WIyWlLk6GJQsqaUBKTNV-0" />
        <mxCell id="BAJ9Ufmrav8TbOn7blmV-0" value="File" style="swimlane;fontStyle=1;align=center;verticalAlign=top;childLayout=stackLayout;horizontal=1;startSize=26;horizontalStack=0;resizeParent=1;resizeParentMax=0;resizeLast=0;collapsible=1;marginBottom=0;whiteSpace=wrap;html=1;" parent="WIyWlLk6GJQsqaUBKTNV-1" vertex="1">
          <mxGeometry x="650" width="280" height="268" as="geometry">
            <mxRectangle x="210" y="180" width="60" height="30" as="alternateBounds" />
          </mxGeometry>
        </mxCell>
        <mxCell id="BAJ9Ufmrav8TbOn7blmV-1" value="- filePath: string" style="text;strokeColor=none;fillColor=none;align=left;verticalAlign=top;spacingLeft=4;spacingRight=4;overflow=hidden;rotatable=0;points=[[0,0.5],[1,0.5]];portConstraint=eastwest;whiteSpace=wrap;html=1;" parent="BAJ9Ufmrav8TbOn7blmV-0" vertex="1">
          <mxGeometry y="26" width="280" height="26" as="geometry" />
        </mxCell>
        <mxCell id="BAJ9Ufmrav8TbOn7blmV-47" value="- isExists: bool" style="text;strokeColor=none;fillColor=none;align=left;verticalAlign=top;spacingLeft=4;spacingRight=4;overflow=hidden;rotatable=0;points=[[0,0.5],[1,0.5]];portConstraint=eastwest;whiteSpace=wrap;html=1;" parent="BAJ9Ufmrav8TbOn7blmV-0" vertex="1">
          <mxGeometry y="52" width="280" height="26" as="geometry" />
        </mxCell>
        <mxCell id="BAJ9Ufmrav8TbOn7blmV-9" value="- fileSize: int" style="text;strokeColor=none;fillColor=none;align=left;verticalAlign=top;spacingLeft=4;spacingRight=4;overflow=hidden;rotatable=0;points=[[0,0.5],[1,0.5]];portConstraint=eastwest;whiteSpace=wrap;html=1;" parent="BAJ9Ufmrav8TbOn7blmV-0" vertex="1">
          <mxGeometry y="78" width="280" height="26" as="geometry" />
        </mxCell>
        <mxCell id="BAJ9Ufmrav8TbOn7blmV-2" value="" style="line;strokeWidth=1;fillColor=none;align=left;verticalAlign=middle;spacingTop=-1;spacingLeft=3;spacingRight=3;rotatable=0;labelPosition=right;points=[];portConstraint=eastwest;strokeColor=inherit;" parent="BAJ9Ufmrav8TbOn7blmV-0" vertex="1">
          <mxGeometry y="104" width="280" height="8" as="geometry" />
        </mxCell>
        <mxCell id="_fVFuxNAZo7906RtrIrG-14" value="constructor" style="text;align=center;fontStyle=1;verticalAlign=middle;spacingLeft=3;spacingRight=3;strokeColor=none;rotatable=0;points=[[0,0.5],[1,0.5]];portConstraint=eastwest;html=1;" parent="BAJ9Ufmrav8TbOn7blmV-0" vertex="1">
          <mxGeometry y="112" width="280" height="26" as="geometry" />
        </mxCell>
        <mxCell id="_fVFuxNAZo7906RtrIrG-15" value="+ File(const string &amp;amp;filePath):" style="text;strokeColor=none;fillColor=none;align=left;verticalAlign=top;spacingLeft=4;spacingRight=4;overflow=hidden;rotatable=0;points=[[0,0.5],[1,0.5]];portConstraint=eastwest;whiteSpace=wrap;html=1;" parent="BAJ9Ufmrav8TbOn7blmV-0" vertex="1">
          <mxGeometry y="138" width="280" height="26" as="geometry" />
        </mxCell>
        <mxCell id="_fVFuxNAZo7906RtrIrG-16" value="interface" style="text;align=center;fontStyle=1;verticalAlign=middle;spacingLeft=3;spacingRight=3;strokeColor=none;rotatable=0;points=[[0,0.5],[1,0.5]];portConstraint=eastwest;html=1;" parent="BAJ9Ufmrav8TbOn7blmV-0" vertex="1">
          <mxGeometry y="164" width="280" height="26" as="geometry" />
        </mxCell>
        <mxCell id="_fVFuxNAZo7906RtrIrG-0" value="+ getPath(): string" style="text;strokeColor=none;fillColor=none;align=left;verticalAlign=top;spacingLeft=4;spacingRight=4;overflow=hidden;rotatable=0;points=[[0,0.5],[1,0.5]];portConstraint=eastwest;whiteSpace=wrap;html=1;" parent="BAJ9Ufmrav8TbOn7blmV-0" vertex="1">
          <mxGeometry y="190" width="280" height="26" as="geometry" />
        </mxCell>
        <mxCell id="_fVFuxNAZo7906RtrIrG-1" value="+ getExistsStatus(): bool" style="text;strokeColor=none;fillColor=none;align=left;verticalAlign=top;spacingLeft=4;spacingRight=4;overflow=hidden;rotatable=0;points=[[0,0.5],[1,0.5]];portConstraint=eastwest;whiteSpace=wrap;html=1;" parent="BAJ9Ufmrav8TbOn7blmV-0" vertex="1">
          <mxGeometry y="216" width="280" height="26" as="geometry" />
        </mxCell>
        <mxCell id="BAJ9Ufmrav8TbOn7blmV-17" value="+ getSize(): int" style="text;strokeColor=none;fillColor=none;align=left;verticalAlign=top;spacingLeft=4;spacingRight=4;overflow=hidden;rotatable=0;points=[[0,0.5],[1,0.5]];portConstraint=eastwest;whiteSpace=wrap;html=1;" parent="BAJ9Ufmrav8TbOn7blmV-0" vertex="1">
          <mxGeometry y="242" width="280" height="26" as="geometry" />
        </mxCell>
        <mxCell id="BAJ9Ufmrav8TbOn7blmV-10" value="FileManager" style="swimlane;fontStyle=1;align=center;verticalAlign=top;childLayout=stackLayout;horizontal=1;startSize=26;horizontalStack=0;resizeParent=1;resizeParentMax=0;resizeLast=0;collapsible=1;marginBottom=0;whiteSpace=wrap;html=1;" parent="WIyWlLk6GJQsqaUBKTNV-1" vertex="1">
          <mxGeometry x="110" y="274" width="450" height="446" as="geometry" />
        </mxCell>
        <mxCell id="BAJ9Ufmrav8TbOn7blmV-11" value="+ trackingFiles: std::vector&amp;lt;File&amp;gt;" style="text;strokeColor=none;fillColor=none;align=left;verticalAlign=top;spacingLeft=4;spacingRight=4;overflow=hidden;rotatable=0;points=[[0,0.5],[1,0.5]];portConstraint=eastwest;whiteSpace=wrap;html=1;" parent="BAJ9Ufmrav8TbOn7blmV-10" vertex="1">
          <mxGeometry y="26" width="450" height="26" as="geometry" />
        </mxCell>
        <mxCell id="BAJ9Ufmrav8TbOn7blmV-18" value="+ loger: ILoger *" style="text;strokeColor=none;fillColor=none;align=left;verticalAlign=top;spacingLeft=4;spacingRight=4;overflow=hidden;rotatable=0;points=[[0,0.5],[1,0.5]];portConstraint=eastwest;whiteSpace=wrap;html=1;" parent="BAJ9Ufmrav8TbOn7blmV-10" vertex="1">
          <mxGeometry y="52" width="450" height="26" as="geometry" />
        </mxCell>
        <mxCell id="BAJ9Ufmrav8TbOn7blmV-12" value="" style="line;strokeWidth=1;fillColor=none;align=left;verticalAlign=middle;spacingTop=-1;spacingLeft=3;spacingRight=3;rotatable=0;labelPosition=right;points=[];portConstraint=eastwest;strokeColor=inherit;" parent="BAJ9Ufmrav8TbOn7blmV-10" vertex="1">
          <mxGeometry y="78" width="450" height="8" as="geometry" />
        </mxCell>
        <mxCell id="2hIOdz4t2jkTOtrLrYXC-1" value="+ static FileManager&amp;amp; InstanceFileManager(ILoger* loger, QObject *parent)" style="text;strokeColor=none;fillColor=none;align=left;verticalAlign=top;spacingLeft=4;spacingRight=4;overflow=hidden;rotatable=0;points=[[0,0.5],[1,0.5]];portConstraint=eastwest;whiteSpace=wrap;html=1;" vertex="1" parent="BAJ9Ufmrav8TbOn7blmV-10">
          <mxGeometry y="86" width="450" height="26" as="geometry" />
        </mxCell>
        <mxCell id="_fVFuxNAZo7906RtrIrG-5" value="constructor" style="text;align=center;fontStyle=1;verticalAlign=middle;spacingLeft=3;spacingRight=3;strokeColor=none;rotatable=0;points=[[0,0.5],[1,0.5]];portConstraint=eastwest;html=1;" parent="BAJ9Ufmrav8TbOn7blmV-10" vertex="1">
          <mxGeometry y="112" width="450" height="26" as="geometry" />
        </mxCell>
        <mxCell id="_fVFuxNAZo7906RtrIrG-9" value="- FileManager(ILoger* loger, QObject *parent);&amp;nbsp;" style="text;strokeColor=none;fillColor=none;align=left;verticalAlign=top;spacingLeft=4;spacingRight=4;overflow=hidden;rotatable=0;points=[[0,0.5],[1,0.5]];portConstraint=eastwest;whiteSpace=wrap;html=1;" parent="BAJ9Ufmrav8TbOn7blmV-10" vertex="1">
          <mxGeometry y="138" width="450" height="26" as="geometry" />
        </mxCell>
        <mxCell id="_fVFuxNAZo7906RtrIrG-6" value="interface" style="text;align=center;fontStyle=1;verticalAlign=middle;spacingLeft=3;spacingRight=3;strokeColor=none;rotatable=0;points=[[0,0.5],[1,0.5]];portConstraint=eastwest;html=1;" parent="BAJ9Ufmrav8TbOn7blmV-10" vertex="1">
          <mxGeometry y="164" width="450" height="26" as="geometry" />
        </mxCell>
        <mxCell id="oUN2JOyzzz-PCL-x8aBZ-0" value="&lt;div style=&quot;&quot;&gt;&lt;/div&gt;+ addTrackedFile(const QString &amp;amp;filePath): void" style="text;strokeColor=none;fillColor=none;align=left;verticalAlign=top;spacingLeft=4;spacingRight=4;overflow=hidden;rotatable=0;points=[[0,0.5],[1,0.5]];portConstraint=eastwest;whiteSpace=wrap;html=1;" parent="BAJ9Ufmrav8TbOn7blmV-10" vertex="1">
          <mxGeometry y="190" width="450" height="24" as="geometry" />
        </mxCell>
        <mxCell id="BAJ9Ufmrav8TbOn7blmV-13" value="&lt;div style=&quot;&quot;&gt;&lt;/div&gt;+ setLoger(ILoger *): void" style="text;strokeColor=none;fillColor=none;align=left;verticalAlign=top;spacingLeft=4;spacingRight=4;overflow=hidden;rotatable=0;points=[[0,0.5],[1,0.5]];portConstraint=eastwest;whiteSpace=wrap;html=1;" parent="BAJ9Ufmrav8TbOn7blmV-10" vertex="1">
          <mxGeometry y="214" width="450" height="24" as="geometry" />
        </mxCell>
        <mxCell id="2hIOdz4t2jkTOtrLrYXC-3" value="+ checkFilesStates:&amp;nbsp;void" style="text;strokeColor=none;fillColor=none;align=left;verticalAlign=top;spacingLeft=4;spacingRight=4;overflow=hidden;rotatable=0;points=[[0,0.5],[1,0.5]];portConstraint=eastwest;whiteSpace=wrap;html=1;" vertex="1" parent="BAJ9Ufmrav8TbOn7blmV-10">
          <mxGeometry y="238" width="450" height="26" as="geometry" />
        </mxCell>
        <mxCell id="2hIOdz4t2jkTOtrLrYXC-4" value="+ checkFileChanges(const QFileInfo&amp;amp; fileNow, File&amp;amp; fileOld):&amp;nbsp;void" style="text;strokeColor=none;fillColor=none;align=left;verticalAlign=top;spacingLeft=4;spacingRight=4;overflow=hidden;rotatable=0;points=[[0,0.5],[1,0.5]];portConstraint=eastwest;whiteSpace=wrap;html=1;" vertex="1" parent="BAJ9Ufmrav8TbOn7blmV-10">
          <mxGeometry y="264" width="450" height="26" as="geometry" />
        </mxCell>
        <mxCell id="2hIOdz4t2jkTOtrLrYXC-5" value="+ findFileInTrackingFiles(const QString &amp;amp;filePath):&amp;nbsp;bool" style="text;strokeColor=none;fillColor=none;align=left;verticalAlign=top;spacingLeft=4;spacingRight=4;overflow=hidden;rotatable=0;points=[[0,0.5],[1,0.5]];portConstraint=eastwest;whiteSpace=wrap;html=1;" vertex="1" parent="BAJ9Ufmrav8TbOn7blmV-10">
          <mxGeometry y="290" width="450" height="26" as="geometry" />
        </mxCell>
        <mxCell id="2hIOdz4t2jkTOtrLrYXC-7" value="+ getInfo(): QString&amp;nbsp;" style="text;strokeColor=none;fillColor=none;align=left;verticalAlign=top;spacingLeft=4;spacingRight=4;overflow=hidden;rotatable=0;points=[[0,0.5],[1,0.5]];portConstraint=eastwest;whiteSpace=wrap;html=1;" vertex="1" parent="BAJ9Ufmrav8TbOn7blmV-10">
          <mxGeometry y="316" width="450" height="26" as="geometry" />
        </mxCell>
        <mxCell id="_fVFuxNAZo7906RtrIrG-3" value="signals:" style="text;align=center;fontStyle=1;verticalAlign=middle;spacingLeft=3;spacingRight=3;strokeColor=none;rotatable=0;points=[[0,0.5],[1,0.5]];portConstraint=eastwest;html=1;" parent="BAJ9Ufmrav8TbOn7blmV-10" vertex="1">
          <mxGeometry y="342" width="450" height="26" as="geometry" />
        </mxCell>
        <mxCell id="_fVFuxNAZo7906RtrIrG-4" value="+ fileChangedMessage: attribute" style="text;strokeColor=none;fillColor=none;align=left;verticalAlign=top;spacingLeft=4;spacingRight=4;overflow=hidden;rotatable=0;points=[[0,0.5],[1,0.5]];portConstraint=eastwest;whiteSpace=wrap;html=1;" parent="BAJ9Ufmrav8TbOn7blmV-10" vertex="1">
          <mxGeometry y="368" width="450" height="26" as="geometry" />
        </mxCell>
        <mxCell id="_fVFuxNAZo7906RtrIrG-23" value="destructor" style="text;align=center;fontStyle=1;verticalAlign=middle;spacingLeft=3;spacingRight=3;strokeColor=none;rotatable=0;points=[[0,0.5],[1,0.5]];portConstraint=eastwest;html=1;" parent="BAJ9Ufmrav8TbOn7blmV-10" vertex="1">
          <mxGeometry y="394" width="450" height="26" as="geometry" />
        </mxCell>
        <mxCell id="_fVFuxNAZo7906RtrIrG-24" value="- ~FileManager():" style="text;strokeColor=none;fillColor=none;align=left;verticalAlign=top;spacingLeft=4;spacingRight=4;overflow=hidden;rotatable=0;points=[[0,0.5],[1,0.5]];portConstraint=eastwest;whiteSpace=wrap;html=1;" parent="BAJ9Ufmrav8TbOn7blmV-10" vertex="1">
          <mxGeometry y="420" width="450" height="26" as="geometry" />
        </mxCell>
        <mxCell id="BAJ9Ufmrav8TbOn7blmV-23" value="LogerConsole" style="swimlane;fontStyle=1;align=center;verticalAlign=top;childLayout=stackLayout;horizontal=1;startSize=26;horizontalStack=0;resizeParent=1;resizeParentMax=0;resizeLast=0;collapsible=1;marginBottom=0;whiteSpace=wrap;html=1;" parent="WIyWlLk6GJQsqaUBKTNV-1" vertex="1">
          <mxGeometry x="635" y="480" width="240" height="112" as="geometry" />
        </mxCell>
        <mxCell id="BAJ9Ufmrav8TbOn7blmV-24" value="+ message: String" style="text;align=left;verticalAlign=top;spacingLeft=4;spacingRight=4;overflow=hidden;rotatable=0;points=[[0,0.5],[1,0.5]];portConstraint=eastwest;whiteSpace=wrap;html=1;" parent="BAJ9Ufmrav8TbOn7blmV-23" vertex="1">
          <mxGeometry y="26" width="240" height="26" as="geometry" />
        </mxCell>
        <mxCell id="BAJ9Ufmrav8TbOn7blmV-25" value="" style="line;strokeWidth=1;align=left;verticalAlign=middle;spacingTop=-1;spacingLeft=3;spacingRight=3;rotatable=0;labelPosition=right;points=[];portConstraint=eastwest;" parent="BAJ9Ufmrav8TbOn7blmV-23" vertex="1">
          <mxGeometry y="52" width="240" height="8" as="geometry" />
        </mxCell>
        <mxCell id="_fVFuxNAZo7906RtrIrG-7" value="slots:" style="text;align=center;fontStyle=1;verticalAlign=middle;spacingLeft=3;spacingRight=3;strokeColor=none;rotatable=0;points=[[0,0.5],[1,0.5]];portConstraint=eastwest;html=1;" parent="BAJ9Ufmrav8TbOn7blmV-23" vertex="1">
          <mxGeometry y="60" width="240" height="26" as="geometry" />
        </mxCell>
        <mxCell id="BAJ9Ufmrav8TbOn7blmV-26" value="&lt;i style=&quot;border-color: var(--border-color);&quot;&gt;+ outputMessage(String message): void&lt;/i&gt;" style="text;align=left;verticalAlign=top;spacingLeft=4;spacingRight=4;overflow=hidden;rotatable=0;points=[[0,0.5],[1,0.5]];portConstraint=eastwest;whiteSpace=wrap;html=1;" parent="BAJ9Ufmrav8TbOn7blmV-23" vertex="1">
          <mxGeometry y="86" width="240" height="26" as="geometry" />
        </mxCell>
        <mxCell id="BAJ9Ufmrav8TbOn7blmV-27" value="" style="endArrow=block;endSize=16;endFill=0;html=1;rounded=0;entryX=0.5;entryY=1;entryDx=0;entryDy=0;exitX=0.5;exitY=0;exitDx=0;exitDy=0;dashed=1;" parent="WIyWlLk6GJQsqaUBKTNV-1" source="BAJ9Ufmrav8TbOn7blmV-23" target="BAJ9Ufmrav8TbOn7blmV-33" edge="1">
          <mxGeometry width="160" relative="1" as="geometry">
            <mxPoint x="610" y="750" as="sourcePoint" />
            <mxPoint x="540" y="540" as="targetPoint" />
          </mxGeometry>
        </mxCell>
        <mxCell id="BAJ9Ufmrav8TbOn7blmV-33" value="&lt;p style=&quot;margin:0px;margin-top:4px;text-align:center;&quot;&gt;&lt;i&gt;&amp;lt;&amp;lt;Interface&amp;gt;&lt;/i&gt;&lt;br&gt;&lt;b&gt;ILoger&lt;/b&gt;&lt;/p&gt;&lt;p style=&quot;margin:0px;margin-left:4px;&quot;&gt;&lt;br&gt;&lt;/p&gt;&lt;hr size=&quot;1&quot;&gt;&lt;p style=&quot;margin:0px;margin-left:4px;&quot;&gt;&lt;i&gt;+ outputMessage(message): void&lt;/i&gt;&lt;br&gt;&lt;/p&gt;" style="verticalAlign=top;align=left;overflow=fill;fontSize=12;fontFamily=Helvetica;html=1;whiteSpace=wrap;" parent="WIyWlLk6GJQsqaUBKTNV-1" vertex="1">
          <mxGeometry x="660" y="342" width="190" height="86" as="geometry" />
        </mxCell>
        <mxCell id="piw-OTBererLm9ezlCpc-0" value="" style="endArrow=none;html=1;edgeStyle=orthogonalEdgeStyle;rounded=0;fontSize=12;startSize=8;endSize=8;curved=1;exitX=1;exitY=0.5;exitDx=0;exitDy=0;entryX=0.502;entryY=1.015;entryDx=0;entryDy=0;entryPerimeter=0;" parent="WIyWlLk6GJQsqaUBKTNV-1" source="BAJ9Ufmrav8TbOn7blmV-11" target="BAJ9Ufmrav8TbOn7blmV-17" edge="1">
          <mxGeometry relative="1" as="geometry">
            <mxPoint x="580" y="324.5" as="sourcePoint" />
            <mxPoint x="770" y="300" as="targetPoint" />
          </mxGeometry>
        </mxCell>
        <mxCell id="piw-OTBererLm9ezlCpc-1" value="parent" style="edgeLabel;resizable=0;html=1;align=left;verticalAlign=bottom;" parent="piw-OTBererLm9ezlCpc-0" connectable="0" vertex="1">
          <mxGeometry x="-1" relative="1" as="geometry" />
        </mxCell>
        <mxCell id="piw-OTBererLm9ezlCpc-2" value="child" style="edgeLabel;resizable=0;html=1;align=right;verticalAlign=bottom;" parent="piw-OTBererLm9ezlCpc-0" connectable="0" vertex="1">
          <mxGeometry x="1" relative="1" as="geometry" />
        </mxCell>
        <mxCell id="piw-OTBererLm9ezlCpc-3" value="" style="endArrow=none;html=1;edgeStyle=orthogonalEdgeStyle;rounded=0;fontSize=12;startSize=8;endSize=8;curved=1;entryX=0.001;entryY=0.391;entryDx=0;entryDy=0;entryPerimeter=0;exitX=1;exitY=0.5;exitDx=0;exitDy=0;" parent="WIyWlLk6GJQsqaUBKTNV-1" source="BAJ9Ufmrav8TbOn7blmV-18" target="BAJ9Ufmrav8TbOn7blmV-33" edge="1">
          <mxGeometry relative="1" as="geometry">
            <mxPoint x="500" y="342" as="sourcePoint" />
            <mxPoint x="660" y="342" as="targetPoint" />
          </mxGeometry>
        </mxCell>
        <mxCell id="piw-OTBererLm9ezlCpc-4" value="parent" style="edgeLabel;resizable=0;html=1;align=left;verticalAlign=bottom;" parent="piw-OTBererLm9ezlCpc-3" connectable="0" vertex="1">
          <mxGeometry x="-1" relative="1" as="geometry" />
        </mxCell>
        <mxCell id="piw-OTBererLm9ezlCpc-5" value="child" style="edgeLabel;resizable=0;html=1;align=right;verticalAlign=bottom;" parent="piw-OTBererLm9ezlCpc-3" connectable="0" vertex="1">
          <mxGeometry x="1" relative="1" as="geometry" />
        </mxCell>
      </root>
    </mxGraphModel>
  </diagram>
</mxfile>
